<svg width="48" height="48" viewBox="0 0 48 48" fill="none" xmlns="http://www.w3.org/2000/svg">
<rect x="0.75" y="0.75" width="46.5" height="46.5" rx="5.25" fill="white" stroke="#E0E0E0" stroke-width="1.5"/>
<path d="M37.86 19.539L33.921 19.851C33.531 17.823 32.738 16.25 31.542 15.132C30.372 13.988 28.773 13.416 26.745 13.416C23.807 13.416 21.714 14.391 20.466 16.341C19.244 18.265 18.633 20.995 18.633 24.531C18.633 26.377 18.815 27.963 19.179 29.289C19.569 30.615 20.089 31.707 20.739 32.565C21.415 33.397 22.195 34.021 23.079 34.437C23.989 34.827 24.951 35.022 25.965 35.022C28.409 35.022 30.294 34.528 31.62 33.54C32.972 32.552 33.986 31.018 34.662 28.938L38.211 29.835C37.873 31.135 37.392 32.37 36.768 33.54C36.144 34.71 35.325 35.75 34.311 36.66C33.297 37.57 32.049 38.298 30.567 38.844C29.085 39.364 27.33 39.624 25.302 39.624C23.248 39.624 21.311 39.325 19.491 38.727C17.697 38.129 16.124 37.219 14.772 35.997C13.446 34.775 12.393 33.241 11.613 31.395C10.833 29.523 10.443 27.326 10.443 24.804C10.443 22.178 10.82 19.903 11.574 17.979C12.354 16.029 13.394 14.43 14.694 13.182C15.994 11.908 17.489 10.959 19.179 10.335C20.895 9.711 22.702 9.399 24.6 9.399C26.576 9.399 28.279 9.646 29.709 10.14C31.165 10.608 32.309 11.219 33.141 11.973L34.038 10.023H37.86V19.539Z" fill="#262626"/>
</svg>
